<svg width="20" height="14" xmlns="http://www.w3.org/2000/svg"><g fill="#F2F2F2" fill-rule="evenodd"><path d="M15.162 14.026a.37.37 0 0 1-.37-.37c0-2.783-2.113-5.046-4.712-5.046-2.598 0-4.712 2.263-4.712 5.046a.37.37 0 0 1-.74 0c0-3.19 2.445-5.787 5.452-5.787s5.453 2.596 5.453 5.787a.37.37 0 0 1-.37.37m-4.894-6.917a3.359 3.359 0 0 1-3.355-3.356A3.358 3.358 0 0 1 10.27.4a3.36 3.36 0 0 1 3.355 3.354A3.36 3.36 0 0 1 10.27 7.11zm0-5.97a2.618 2.618 0 0 0-2.615 2.614 2.618 2.618 0 0 0 2.615 2.615 2.618 2.618 0 0 0 2.615-2.615 2.618 2.618 0 0 0-2.615-2.614z"/><path d="M5.853 9.164a.37.37 0 0 1-.37-.37c0-1.353-1.023-2.454-2.28-2.454S.923 7.44.923 8.794a.37.37 0 0 1-.74 0c0-1.762 1.354-3.195 3.02-3.195 1.665 0 3.02 1.433 3.02 3.195a.37.37 0 0 1-.37.37M3.3 5.557A1.929 1.929 0 0 1 1.376 3.63c0-1.063.864-1.927 1.926-1.927A1.93 1.93 0 0 1 5.228 3.63a1.93 1.93 0 0 1-1.927 1.927zm0-3.113a1.187 1.187 0 0 0 0 2.372 1.187 1.187 0 0 0 .001-2.372zm16.327 6.72a.37.37 0 0 1-.37-.37c0-1.353-1.023-2.454-2.28-2.454-1.258 0-2.28 1.1-2.28 2.454a.37.37 0 0 1-.741 0c0-1.762 1.354-3.195 3.021-3.195 1.665 0 3.02 1.433 3.02 3.195a.37.37 0 0 1-.37.37m-2.552-3.607a1.93 1.93 0 0 1-1.927-1.927c0-1.063.865-1.927 1.927-1.927S19 2.567 19 3.63a1.93 1.93 0 0 1-1.926 1.927zm0-3.113c-.654 0-1.186.532-1.186 1.186 0 .654.532 1.186 1.186 1.186.654 0 1.186-.532 1.186-1.186 0-.654-.532-1.186-1.186-1.186z"/></g></svg>