<svg width="20" height="15" xmlns="http://www.w3.org/2000/svg"><g fill="#FFF" fill-rule="evenodd"><path d="M6.05 14.535H4.633c-.594 0-1.078-.466-1.078-1.038v-3.46c0-.224.188-.404.42-.404a.41.41 0 0 1 .418.404v3.46c0 .125.11.23.24.23h1.415c.13 0 .24-.105.24-.23V1.708a.239.239 0 0 0-.24-.231H4.634c-.13 0-.24.105-.24.231v3.18a.411.411 0 0 1-.419.404.412.412 0 0 1-.419-.404v-3.18c0-.572.484-1.04 1.078-1.04h1.415c.594 0 1.078.468 1.078 1.04v11.789c0 .572-.484 1.038-1.078 1.038"/><path d="M3.975 12.141H1.902c-.594 0-1.077-.467-1.077-1.04V4.104c0-.573.483-1.04 1.077-1.04h2.073a.41.41 0 0 1 .42.405.411.411 0 0 1-.42.404H1.902c-.13 0-.24.105-.24.23v7c0 .126.11.231.24.231h1.654v-1.117c0-.223.188-.404.42-.404a.41.41 0 0 1 .418.404v1.521a.411.411 0 0 1-.419.404m11.327 2.393h-1.415c-.594 0-1.077-.466-1.077-1.038V1.708c0-.572.483-1.04 1.077-1.04h1.415c.594 0 1.078.468 1.078 1.04v3.46a.412.412 0 0 1-.419.404.411.411 0 0 1-.419-.404v-3.46a.239.239 0 0 0-.24-.231h-1.415c-.13 0-.24.105-.24.231v11.789c0 .125.11.23.24.23h1.415c.13 0 .24-.105.24-.23v-3.181c0-.223.187-.404.42-.404.23 0 .418.18.418.404v3.18c0 .573-.484 1.04-1.078 1.04"/><path d="M18.035 12.141h-2.074a.411.411 0 0 1-.419-.404.41.41 0 0 1 .42-.404h2.073a.239.239 0 0 0 .239-.231v-7a.238.238 0 0 0-.239-.23H16.38v1.117a.412.412 0 0 1-.419.403.411.411 0 0 1-.419-.403V3.468a.41.41 0 0 1 .42-.404h2.073c.593 0 1.077.466 1.077 1.039v6.999c0 .572-.484 1.04-1.077 1.04m-4.806-3.063H6.708a.411.411 0 0 1-.42-.404V6.281c0-.223.189-.404.42-.404h6.52c.232 0 .42.181.42.404v2.394a.411.411 0 0 1-.42.404zm-6.102-.808h5.683V6.685H7.127V8.27z"/></g></svg>