<svg width="19" height="16" xmlns="http://www.w3.org/2000/svg"><g fill="#FFF" fill-rule="evenodd"><path d="M16.863 15.898H2.613A1.986 1.986 0 0 1 .63 13.914V2.046C.63.952 1.52.06 2.613.06h4.365c1.093 0 1.983.89 1.983 1.985v.77h7.902c1.094 0 1.985.89 1.985 1.984v9.114c0 1.093-.89 1.984-1.985 1.984zM2.613.766a1.28 1.28 0 0 0-1.28 1.28v11.868c0 .706.574 1.28 1.28 1.28h14.25c.707 0 1.281-.574 1.281-1.28V4.8c0-.706-.574-1.28-1.28-1.28H8.608a.352.352 0 0 1-.351-.352V2.046c0-.707-.575-1.28-1.28-1.28H2.613z"/><path d="M9.381 3.52H1.26a.352.352 0 1 1 0-.704h8.12a.351.351 0 1 1 0 .703"/></g></svg>