<svg width="19" height="20" xmlns="http://www.w3.org/2000/svg"><g fill="#FFF" fill-rule="evenodd"><path d="M15.95 19.36h-3.974a.407.407 0 0 1-.413-.4l-.001-4.151c0-.938-.773-1.702-1.722-1.702h-.536c-.949 0-1.721.764-1.721 1.702v4.15a.407.407 0 0 1-.413.402H3.192a.408.408 0 0 1-.413-.4l-.007-1.09v-6.585l-1.055.01c-.623 0-1.147-.338-1.383-.882a1.393 1.393 0 0 1 .307-1.57l7.786-7.727c.585-.578 1.695-.577 2.28-.001l2.441 2.401.107.022a.105.105 0 0 0 .063-.097V1.99c0-.675.561-1.225 1.252-1.225.69 0 1.25.55 1.25 1.225v3.326l2.861 3.67c.343.438.4 1.019.147 1.512a1.483 1.483 0 0 1-1.329.801l-1.137-.012v7.672a.407.407 0 0 1-.413.402zm-3.562-.802h3.148v-7.676c0-.108.044-.21.122-.286a.452.452 0 0 1 .295-.116l1.537.017a.652.652 0 0 0 .598-.356.614.614 0 0 0-.065-.672l-2.944-3.776a.394.394 0 0 1-.085-.242V1.99a.424.424 0 1 0-.85 0v1.45a.902.902 0 0 1-.57.838.956.956 0 0 1-1.013-.197L10.118 1.68c-.274-.272-.827-.271-1.101 0L1.232 9.405a.61.61 0 0 0-.137.696.64.64 0 0 0 .606.392l1.48-.014c.098-.01.217.04.294.116a.396.396 0 0 1 .123.286l.005 7.676h3.154v-3.75c0-1.38 1.142-2.503 2.547-2.503h.536c1.405 0 2.548 1.123 2.548 2.504v3.749z"/><path d="M7.845 9.631c-1.054 0-1.91-.833-1.91-1.856 0-1.023.856-1.856 1.91-1.856 1.053 0 1.91.833 1.91 1.856 0 1.023-.857 1.856-1.91 1.856zm0-2.91c-.598 0-1.084.474-1.084 1.054 0 .581.486 1.054 1.084 1.054.598 0 1.084-.473 1.084-1.054 0-.58-.486-1.053-1.084-1.053z"/></g></svg>