<svg width="18" height="21" xmlns="http://www.w3.org/2000/svg"><g fill="#FFF" fill-rule="evenodd"><path d="M16.285 20.4H1.4a1.178 1.178 0 0 1-1.177-1.177V4.338c0-.65.528-1.177 1.177-1.177h1.864a.36.36 0 1 1 0 .72H1.4a.458.458 0 0 0-.457.457v14.885c0 .252.205.457.457.457h14.885a.458.458 0 0 0 .457-.457V4.338a.458.458 0 0 0-.457-.457H14.18a.36.36 0 1 1 0-.72h2.105c.649 0 1.177.528 1.177 1.177v14.885c0 .65-.528 1.177-1.177 1.177"/><path d="M12.421 6.153H5.023a.789.789 0 0 1-.789-.788V2.987a.79.79 0 0 1 .789-.79h.541v-.54a.79.79 0 0 1 .789-.788h4.739c.434 0 .788.353.788.787v.542h.541a.79.79 0 0 1 .789.789v2.378a.789.789 0 0 1-.789.788zM5.023 2.918a.07.07 0 0 0-.069.069v2.378a.07.07 0 0 0 .069.068h7.398a.07.07 0 0 0 .069-.068V2.987a.07.07 0 0 0-.069-.07h-.901a.36.36 0 0 1-.36-.36v-.9a.07.07 0 0 0-.068-.068h-4.74a.069.069 0 0 0-.068.067v.902c0 .2-.161.36-.36.36h-.901z"/><path d="M8.722 4.37a1.137 1.137 0 0 1 0-2.272 1.137 1.137 0 0 1 0 2.271zm0-1.552a.416.416 0 1 0 0 .831.416.416 0 0 0 0-.831zm4.882 6.72H3.908a.36.36 0 0 1 0-.72h9.696a.36.36 0 1 1 0 .72m0 3.438H3.908a.36.36 0 0 1 0-.72h9.696a.36.36 0 1 1 0 .72m0 3.437H3.908a.36.36 0 1 1 0-.72h9.696a.36.36 0 0 1 0 .72"/></g></svg>