<svg width="18" height="18" xmlns="http://www.w3.org/2000/svg"><path d="M8.983 6.115A2.889 2.889 0 0 0 6.098 9a2.89 2.89 0 0 0 2.885 2.885A2.889 2.889 0 0 0 11.868 9a2.888 2.888 0 0 0-2.885-2.885m0 6.483A3.603 3.603 0 0 1 5.385 9a3.603 3.603 0 0 1 3.598-3.598A3.602 3.602 0 0 1 12.581 9a3.602 3.602 0 0 1-3.598 3.598m-2.656 1.956a.61.61 0 0 1 .233.042c.223.094.71.582.892 1.006l.532 1.246c.099.23.416.439.666.439h.734c.25 0 .563-.209.658-.439l.522-1.253c.079-.188.358-.809.679-.933.035-.013.135-.05.419-.05.16 0 .57.014.902.147l1.267.508c.22.087.612.008.781-.16l.52-.52c.175-.176.25-.545.154-.776l-.52-1.26c-.077-.186-.319-.82-.188-1.129.09-.212.573-.683.999-.865l1.27-.542c.231-.098.44-.415.44-.665v-.734c0-.25-.209-.563-.44-.659l-1.265-.527c-.242-.1-.814-.368-.93-.68-.08-.215-.066-.888.103-1.31l.511-1.271c.093-.233.016-.604-.16-.781l-.52-.52c-.168-.168-.557-.244-.775-.155l-1.253.516c-.357.146-.879.293-1.137.181-.215-.095-.69-.581-.87-1.004l-.535-1.254C9.917.922 9.6.713 9.35.713h-.734c-.249 0-.563.209-.659.439L7.44 2.393c-.079.188-.36.81-.69.934-.093.034-.239.05-.435.05-.162 0-.574-.014-.9-.145l-1.245-.5c-.221-.09-.613-.01-.781.16l-.52.519c-.175.176-.249.546-.155.776l.505 1.226c.076.188.317.824.176 1.148-.098.225-.59.716-1.012.897l-1.23.526c-.23.098-.439.416-.439.666v.734c0 .25.21.563.44.66l1.225.51c.188.078.812.36.936.694.087.23.084.924-.085 1.345l-.497 1.238c-.093.232-.017.604.16.781l.52.52c.166.168.556.243.774.155l1.233-.508c.333-.136.688-.225.908-.225M9.384 18H8.65c-.532 0-1.112-.383-1.322-.872l-.532-1.247c-.098-.229-.375-.514-.497-.611-.117.01-.35.063-.608.169l-1.232.507c-.487.201-1.182.059-1.552-.31l-.52-.52c-.375-.376-.514-1.057-.317-1.55l.497-1.239c.104-.26.1-.738.074-.845-.019.01-.224-.14-.537-.271L.878 10.7C.386 10.495 0 9.917 0 9.384V8.65c0-.531.383-1.113.872-1.322l1.23-.526c.233-.1.526-.386.623-.51a2.268 2.268 0 0 0-.167-.608l-.504-1.226c-.203-.494-.067-1.175.31-1.551l.52-.52c.37-.369 1.062-.513 1.55-.317l1.246.5c.144.058.387.094.634.094.073 0 .126-.003.161-.007a2.23 2.23 0 0 0 .306-.538L7.299.877C7.504.385 8.083 0 8.616 0h.734c.532 0 1.113.383 1.322.872l.535 1.254c.1.236.365.513.483.612.116-.011.343-.064.596-.169l1.254-.515c.486-.201 1.18-.059 1.55.31l.52.52c.376.376.516 1.057.318 1.55l-.511 1.273c-.095.236-.107.615-.095.768.078.064.273.188.535.297l1.265.527c.492.205.878.784.878 1.317v.734c0 .532-.384 1.113-.873 1.321l-1.27.542c-.234.1-.505.356-.604.472.012.102.063.33.173.594l.52 1.26c.203.494.067 1.175-.31 1.552l-.52.52c-.368.368-1.06.514-1.55.317l-1.268-.507a1.883 1.883 0 0 0-.636-.097c-.061 0-.107.003-.139.005-.065.079-.19.276-.3.54l-.523 1.254c-.204.491-.783.877-1.316.877" fill="#F8F8F8" fill-rule="evenodd"/></svg>