<svg width="21" height="21" xmlns="http://www.w3.org/2000/svg"><g fill="#FFF" fill-rule="evenodd"><path d="M10.397.366C4.877.366.384 4.858.384 10.379a9.97 9.97 0 0 0 2.306 6.385c.013.014.024.029.038.041a9.995 9.995 0 0 0 7.67 3.587c5.52 0 10.012-4.491 10.012-10.013C20.41 4.858 15.92.366 10.397.366zm0 .75c5.108 0 9.263 4.155 9.263 9.263a9.21 9.21 0 0 1-2.04 5.786c-.02-.003-.038-.012-.059-.012H3.166a9.21 9.21 0 0 1-2.032-5.774c0-5.108 4.156-9.263 9.263-9.263zm0 18.526a9.235 9.235 0 0 1-6.568-2.74h13.137a9.233 9.233 0 0 1-6.569 2.74z"/><path d="M8.9 12.934c.319 0 .653-.1.994-.296l3.633-2.098c.604-.348.937-.836.937-1.373s-.333-1.025-.937-1.373L9.894 5.696C9.554 5.5 9.219 5.4 8.9 5.4c-.829 0-1.384.671-1.384 1.67v4.195c0 1 .556 1.67 1.384 1.67zM8.265 7.07c0-.277.062-.92.635-.92.183 0 .398.067.619.195l3.633 2.098c.357.206.562.47.562.724 0 .253-.205.517-.562.723l-3.633 2.098c-.221.128-.436.196-.619.196-.573 0-.635-.643-.635-.92V7.07z"/></g></svg>