<svg width="19" height="22" xmlns="http://www.w3.org/2000/svg"><g fill="#FFF" fill-rule="evenodd"><path d="M8.567 12.662a1.161 1.161 0 1 1 2.052-1.086 1.161 1.161 0 0 1-2.052 1.086"/><path d="M12.526 17.775l.098-.052-2.107-5.37-1.25.662 3.259 4.76"/><path d="M9.604 21.425c-5.112 0-9.271-4.16-9.271-9.27 0-5.113 4.16-9.272 9.271-9.272 5.112 0 9.271 4.159 9.271 9.271 0 5.112-4.16 9.27-9.27 9.27zm0-17.827c-4.718 0-8.556 3.837-8.556 8.556 0 4.718 3.838 8.556 8.556 8.556 4.718 0 8.556-3.838 8.556-8.556 0-4.719-3.838-8.556-8.556-8.556z"/><path d="M9.604 3.196a.357.357 0 0 1-.357-.358v-1.75a.357.357 0 1 1 .715 0v1.75c0 .198-.16.358-.358.358"/><path d="M11.629 1.624h-4.05a.536.536 0 0 1 0-1.072h4.05a.536.536 0 0 1 0 1.072M5.337 4.493a.501.501 0 0 1-.411-.214l-.524-.753a.5.5 0 0 1 .822-.571l.523.752a.5.5 0 0 1-.41.786m8.533 0a.5.5 0 0 1-.41-.786l.524-.752a.5.5 0 0 1 .821.57l-.523.754a.502.502 0 0 1-.411.214"/></g></svg>