<svg width="18" height="20" xmlns="http://www.w3.org/2000/svg"><g fill="#FFF" fill-rule="evenodd"><path d="M8.99 9.417a.216.216 0 0 0 .032-.12.27.27 0 0 0-.272-.273H5.179a.271.271 0 0 0-.273.274c0 .153.12.272.273.272h2.926l-1.9 1.954a.277.277 0 0 0 0 .393h.012c.054.066.13.11.218.11.524 0 1.048.196 1.441.601.404.392.6.917.6 1.44 0 .525-.196 1.049-.6 1.453a2.079 2.079 0 0 1-1.452.589 2.052 2.052 0 0 1-1.442-.589.264.264 0 0 0-.382 0c-.109.11-.109.284 0 .382a2.549 2.549 0 0 0 1.824.765c.666 0 1.332-.263 1.834-.765a2.551 2.551 0 0 0 .764-1.834c0-.666-.251-1.332-.753-1.834-.371-.372-.83-.6-1.31-.7l1.976-2.03a.232.232 0 0 0 .055-.088m3.363-.327l-1.474.895c-.131.066-.174.219-.098.36.043.077.13.131.23.131a.272.272 0 0 0 .13-.043l1.08-.634v6.606c0 .142.121.262.263.262.153 0 .262-.12.262-.262v-7.02a.313.313 0 0 0-.032-.197c-.066-.12-.241-.164-.36-.098"/><path d="M16.663 18.58H.98a.25.25 0 0 1-.25-.251V7.572h16.183V18.33a.25.25 0 0 1-.25.25M.98 2.652h3.48v1.301a.365.365 0 1 0 .73 0V2.652h7.265v1.301a.365.365 0 0 0 .73 0V2.652h3.479a.25.25 0 0 1 .25.25v3.94H.73v-3.94a.25.25 0 0 1 .25-.25m15.683-.73h-3.479V.365a.365.365 0 0 0-.73 0v1.557H5.19V.365a.365.365 0 0 0-.73 0v1.557H.98c-.54 0-.98.44-.98.98V18.33c0 .54.44.98.98.98h15.683c.54 0 .98-.44.98-.98V2.902c0-.54-.44-.98-.98-.98"/></g></svg>