<svg width="20" height="20" xmlns="http://www.w3.org/2000/svg"><path d="M12.594 9.668c.735-.264 1.963-.432 3.141.223 2.004 1.112 3.888-.58 3.613-2.455-.243-1.662-1.269-3.353-2.572-4.033-1.948-1.015-3.424-.45-4.566.79-.747.811-1.53 2.244-1.59 3.606-.029.641-.773.607-.952.108-.265-.736-.432-1.964.222-3.142 1.113-2.004-.58-3.888-2.454-3.613-1.662.243-3.353 1.269-4.033 2.572-1.015 1.949-.45 3.424.79 4.566.811.748 2.244 1.53 3.606 1.59.641.029.607.774.108.952-.736.265-1.964.433-3.142-.222-2.004-1.113-3.888.58-3.613 2.455.243 1.661 1.269 3.352 2.572 4.032 1.949 1.016 3.424.45 4.566-.789.748-.812 1.53-2.244 1.59-3.606.029-.642.773-.608.952-.109.264.736.432 1.964-.222 3.142-1.113 2.004.58 3.888 2.454 3.613 1.662-.243 3.353-1.268 4.033-2.572 1.016-1.949.45-3.423-.789-4.566-.812-.747-2.245-1.53-3.606-1.59-.642-.028-.608-.773-.108-.952z" stroke="#F2F2F2" fill="none"/></svg>