<svg width="17" height="19" xmlns="http://www.w3.org/2000/svg"><g fill="#FFF" fill-rule="evenodd"><path d="M16.154 16.581c0 .66-.55 1.197-1.229 1.197H4.938c-.677 0-1.229-.537-1.229-1.197v-.87h8.137c1.025 0 1.858-.812 1.858-1.81V3.293h1.221c.678 0 1.23.537 1.23 1.196v12.092zM.63 13.901V1.81c0-.66.552-1.196 1.229-1.196h9.988c.677 0 1.229.537 1.229 1.196v12.092c0 .66-.552 1.197-1.23 1.197H1.859c-.677 0-1.229-.537-1.229-1.197zm14.296-11.22h-1.22v-.872c0-.997-.834-1.81-1.86-1.81H1.859C.833 0 0 .813 0 1.81v12.092c0 .998.833 1.81 1.858 1.81h1.221v.87c0 .998.835 1.81 1.859 1.81h9.987c1.025 0 1.859-.812 1.859-1.81V4.49c0-.997-.834-1.809-1.859-1.809z"/><path d="M3.045 10.109h4.979c.173 0 .314-.152.314-.34 0-.187-.14-.339-.314-.339h-4.98c-.173 0-.314.152-.314.34 0 .187.14.339.315.339m8.265 1.507c0-.187-.142-.339-.315-.339h-7.95c-.175 0-.315.152-.315.34 0 .187.14.339.315.339h7.95c.173 0 .314-.152.314-.34M4.695 3.68c.737 0 1.337.583 1.337 1.3 0 .717-.6 1.3-1.337 1.3-.736 0-1.336-.583-1.336-1.3 0-.717.6-1.3 1.336-1.3m0 3.213c1.085 0 1.966-.858 1.966-1.913 0-1.056-.881-1.914-1.966-1.914-1.084 0-1.965.858-1.965 1.914 0 1.055.881 1.913 1.965 1.913"/></g></svg>