<?xml version="1.0" encoding="UTF-8"?>
<svg width="7px" height="14px" viewBox="0 0 7 14" version="1.1" xmlns="http://www.w3.org/2000/svg" xmlns:xlink="http://www.w3.org/1999/xlink">
    <!-- Generator: Sketch 48.2 (47327) - http://www.bohemiancoding.com/sketch -->
    <title>Combined Shape Copy</title>
    <desc>Created with Sketch.</desc>
    <defs></defs>
    <g id="Measurements" stroke="none" stroke-width="1" fill="none" fill-rule="evenodd" transform="translate(-56.000000, -230.000000)">
        <g id="Sidebar" fill="#636363">
            <path d="M56,230 L58,230 L58,232 L56,232 L56,230 Z M56,234 L58,234 L58,236 L56,236 L56,234 Z M61,230 L63,230 L63,232 L61,232 L61,230 Z M61,234 L63,234 L63,236 L61,236 L61,234 Z M56,238 L58,238 L58,240 L56,240 L56,238 Z M61,238 L63,238 L63,240 L61,240 L61,238 Z M56,242 L58,242 L58,244 L56,244 L56,242 Z M61,242 L63,242 L63,244 L61,244 L61,242 Z" id="Combined-Shape-Copy"></path>
        </g>
    </g>
</svg>