<?xml version="1.0" encoding="UTF-8"?>
<svg width="7px" height="14px" viewBox="0 0 7 14" version="1.1" xmlns="http://www.w3.org/2000/svg" xmlns:xlink="http://www.w3.org/1999/xlink">
    <!-- Generator: Sketch 48.2 (47327) - http://www.bohemiancoding.com/sketch -->
    <title>Combined Shape Copy 2</title>
    <desc>Created with Sketch.</desc>
    <defs></defs>
    <g id="Measurements" stroke="none" stroke-width="1" fill="none" fill-rule="evenodd" transform="translate(-30.000000, -262.000000)">
        <g id="Sidebar" fill="#636363">
            <path d="M30,262 L32,262 L32,264 L30,264 L30,262 Z M30,266 L32,266 L32,268 L30,268 L30,266 Z M35,262 L37,262 L37,264 L35,264 L35,262 Z M35,266 L37,266 L37,268 L35,268 L35,266 Z M30,270 L32,270 L32,272 L30,272 L30,270 Z M35,270 L37,270 L37,272 L35,272 L35,270 Z M30,274 L32,274 L32,276 L30,276 L30,274 Z M35,274 L37,274 L37,276 L35,276 L35,274 Z" id="Combined-Shape-Copy-2"></path>
        </g>
    </g>
</svg>