<?xml version="1.0" encoding="UTF-8"?>
<svg width="7px" height="14px" viewBox="0 0 7 14" version="1.1" xmlns="http://www.w3.org/2000/svg" xmlns:xlink="http://www.w3.org/1999/xlink">
    <!-- Generator: Sketch 48.2 (47327) - http://www.bohemiancoding.com/sketch -->
    <title>Combined Shape Copy 3</title>
    <desc>Created with Sketch.</desc>
    <defs></defs>
    <g id="Measurements" stroke="none" stroke-width="1" fill="none" fill-rule="evenodd" transform="translate(-30.000000, -294.000000)">
        <g id="Sidebar" fill="#636363">
            <path d="M30,294 L32,294 L32,296 L30,296 L30,294 Z M30,298 L32,298 L32,300 L30,300 L30,298 Z M35,294 L37,294 L37,296 L35,296 L35,294 Z M35,298 L37,298 L37,300 L35,300 L35,298 Z M30,302 L32,302 L32,304 L30,304 L30,302 Z M35,302 L37,302 L37,304 L35,304 L35,302 Z M30,306 L32,306 L32,308 L30,308 L30,306 Z M35,306 L37,306 L37,308 L35,308 L35,306 Z" id="Combined-Shape-Copy-3"></path>
        </g>
    </g>
</svg>