<?xml version="1.0" encoding="UTF-8"?>
<svg width="6px" height="10px" viewBox="0 0 6 10" version="1.1" xmlns="http://www.w3.org/2000/svg" xmlns:xlink="http://www.w3.org/1999/xlink">
    <!-- Generator: Sketch 48.2 (47327) - http://www.bohemiancoding.com/sketch -->
    <title>ic-shevron copy 6</title>
    <desc>Created with Sketch.</desc>
    <defs></defs>
    <g id="Measurements" stroke="none" stroke-width="1" fill="none" fill-rule="evenodd" transform="translate(-263.000000, -86.000000)">
        <path d="M266.23,93.897 L270.9,89.093 C270.967,89.024 271,88.945 271,88.856 C271,88.766 270.967,88.687 270.9,88.619 L270.399,88.103 C270.332,88.034 270.255,88 270.168,88 C270.081,88 270.005,88.034 269.938,88.103 L266,92.155 L262.062,88.103 C261.995,88.034 261.918,88 261.831,88 C261.744,88 261.668,88.034 261.601,88.103 L261.1,88.619 C261.033,88.687 261,88.766 261,88.856 C261,88.945 261.033,89.024 261.1,89.093 L265.769,93.897 C265.836,93.966 265.913,94 266,94 C266.087,94 266.164,93.966 266.23,93.897" id="ic-shevron-copy-6" fill="#3A99D8" transform="translate(266.000000, 91.000000) rotate(-270.000000) translate(-266.000000, -91.000000) "></path>
    </g>
</svg>