<?xml version="1.0" encoding="UTF-8"?>
<svg width="20px" height="14px" viewBox="0 0 20 14" version="1.1" xmlns="http://www.w3.org/2000/svg" xmlns:xlink="http://www.w3.org/1999/xlink">
    <!-- Generator: Sketch 48.2 (47327) - http://www.bohemiancoding.com/sketch -->
    <title>ic-clients</title>
    <desc>Created with Sketch.</desc>
    <defs></defs>
    <g id="Measurements" stroke="none" stroke-width="1" fill="none" fill-rule="evenodd" transform="translate(-24.000000, -485.000000)">
        <g id="Sidebar" fill="#F2F2F2">
            <g id="ic-clients" transform="translate(24.000000, 485.000000)">
                <path d="M15.1622222,14.0259259 C14.9577778,14.0259259 14.7918519,13.8607407 14.7918519,13.6562963 C14.7918519,10.8733333 12.6785185,8.60962963 10.08,8.60962963 C7.48222222,8.60962963 5.36814815,10.8733333 5.36814815,13.6562963 C5.36814815,13.8607407 5.20222222,14.0259259 4.99777778,14.0259259 C4.79259259,14.0259259 4.62740741,13.8607407 4.62740741,13.6562963 C4.62740741,10.4651852 7.07333333,7.86888889 10.08,7.86888889 C13.0866667,7.86888889 15.5325926,10.4651852 15.5325926,13.6562963 C15.5325926,13.8607407 15.3674074,14.0259259 15.1622222,14.0259259" id="Fill-1"></path>
                <path d="M10.2688889,7.10888889 C8.41851852,7.10888889 6.91407407,5.6037037 6.91407407,3.75333333 C6.91407407,1.9037037 8.41851852,0.398518519 10.2688889,0.398518519 C12.1185185,0.398518519 13.6244444,1.9037037 13.6244444,3.75333333 C13.6244444,5.6037037 12.1185185,7.10888889 10.2688889,7.10888889 L10.2688889,7.10888889 Z M10.2688889,1.13925926 C8.82740741,1.13925926 7.65407407,2.31185185 7.65407407,3.75333333 C7.65407407,5.19555556 8.82740741,6.36814815 10.2688889,6.36814815 C11.7103704,6.36814815 12.8837037,5.19555556 12.8837037,3.75333333 C12.8837037,2.31185185 11.7103704,1.13925926 10.2688889,1.13925926 L10.2688889,1.13925926 Z" id="Fill-2"></path>
                <path d="M5.85333333,9.16444444 C5.64888889,9.16444444 5.48296296,8.99851852 5.48296296,8.79407407 C5.48296296,7.44074074 4.46,6.34 3.20296296,6.34 C1.94592593,6.34 0.922962963,7.44074074 0.922962963,8.79407407 C0.922962963,8.99851852 0.757037037,9.16444444 0.552592593,9.16444444 C0.347407407,9.16444444 0.182222222,8.99851852 0.182222222,8.79407407 C0.182222222,7.03185185 1.53703704,5.59925926 3.20296296,5.59925926 C4.86814815,5.59925926 6.2237037,7.03185185 6.2237037,8.79407407 C6.2237037,8.99851852 6.05777778,9.16444444 5.85333333,9.16444444" id="Fill-3"></path>
                <path d="M3.30074074,5.55703704 C2.23925926,5.55703704 1.37481481,4.69259259 1.37481481,3.62962963 C1.37481481,2.56740741 2.23925926,1.70296296 3.30074074,1.70296296 C4.3637037,1.70296296 5.22814815,2.56740741 5.22814815,3.62962963 C5.22814815,4.69259259 4.3637037,5.55703704 3.30074074,5.55703704 L3.30074074,5.55703704 Z M3.30074074,2.4437037 C2.64740741,2.4437037 2.11555556,2.9762963 2.11555556,3.62962963 C2.11555556,4.2837037 2.64740741,4.8162963 3.30074074,4.8162963 C3.95555556,4.8162963 4.48740741,4.2837037 4.48740741,3.62962963 C4.48740741,2.9762963 3.95555556,2.4437037 3.30074074,2.4437037 L3.30074074,2.4437037 Z" id="Fill-4"></path>
                <path d="M19.6274074,9.16444444 C19.4222222,9.16444444 19.257037,8.99851852 19.257037,8.79407407 C19.257037,7.44074074 18.2340741,6.34 16.977037,6.34 C15.7192593,6.34 14.6962963,7.44074074 14.6962963,8.79407407 C14.6962963,8.99851852 14.5303704,9.16444444 14.3259259,9.16444444 C14.1207407,9.16444444 13.9555556,8.99851852 13.9555556,8.79407407 C13.9555556,7.03185185 15.3103704,5.59925926 16.977037,5.59925926 C18.6422222,5.59925926 19.9977778,7.03185185 19.9977778,8.79407407 C19.9977778,8.99851852 19.8318519,9.16444444 19.6274074,9.16444444" id="Fill-5"></path>
                <path d="M17.0748148,5.55703704 C16.0125926,5.55703704 15.1481481,4.69259259 15.1481481,3.62962963 C15.1481481,2.56740741 16.0125926,1.70296296 17.0748148,1.70296296 C18.137037,1.70296296 19.0014815,2.56740741 19.0014815,3.62962963 C19.0014815,4.69259259 18.137037,5.55703704 17.0748148,5.55703704 L17.0748148,5.55703704 Z M17.0748148,2.4437037 C16.4207407,2.4437037 15.8888889,2.9762963 15.8888889,3.62962963 C15.8888889,4.2837037 16.4207407,4.8162963 17.0748148,4.8162963 C17.7288889,4.8162963 18.2607407,4.2837037 18.2607407,3.62962963 C18.2607407,2.9762963 17.7288889,2.4437037 17.0748148,2.4437037 L17.0748148,2.4437037 Z" id="Fill-6"></path>
            </g>
        </g>
    </g>
</svg>