<?xml version="1.0" encoding="UTF-8"?>
<svg width="20px" height="15px" viewBox="0 0 20 15" version="1.1" xmlns="http://www.w3.org/2000/svg" xmlns:xlink="http://www.w3.org/1999/xlink">
    <!-- Generator: Sketch 48.2 (47327) - http://www.bohemiancoding.com/sketch -->
    <title>ic-exercises</title>
    <desc>Created with Sketch.</desc>
    <defs></defs>
    <g id="Measurements" stroke="none" stroke-width="1" fill="none" fill-rule="evenodd" transform="translate(-23.000000, -123.000000)">
        <g id="Sidebar" fill="#FFFFFF">
            <g id="ic-exercises" transform="translate(23.250170, 122.889338)">
                <path d="M5.79905287,14.6459639 L4.38378736,14.6459639 C3.78969425,14.6459639 3.30620805,14.1798972 3.30620805,13.6072087 L3.30620805,10.147653 C3.30620805,9.92390869 3.4939046,9.7437824 3.72517356,9.7437824 C3.95728046,9.7437824 4.14413908,9.92390869 4.14413908,10.147653 L4.14413908,13.6072087 C4.14413908,13.7324086 4.25390805,13.8382227 4.38378736,13.8382227 L5.79905287,13.8382227 C5.92893218,13.8382227 6.03870115,13.7324086 6.03870115,13.6072087 L6.03870115,1.81903324 C6.03870115,1.69302561 5.92893218,1.58721151 5.79905287,1.58721151 L4.38378736,1.58721151 C4.25390805,1.58721151 4.14413908,1.69302561 4.14413908,1.81903324 L4.14413908,4.99911044 C4.14413908,5.22204702 3.95728046,5.40298106 3.72517356,5.40298106 C3.4939046,5.40298106 3.30620805,5.22204702 3.30620805,4.99911044 L3.30620805,1.81903324 C3.30620805,1.24634471 3.78969425,0.779470282 4.38378736,0.779470282 L5.79905287,0.779470282 C6.39314598,0.779470282 6.87663218,1.24634471 6.87663218,1.81903324 L6.87663218,13.6072087 C6.87663218,14.1798972 6.39314598,14.6459639 5.79905287,14.6459639" id="Fill-1"></path>
                <path d="M3.72517356,12.2518189 L1.65213218,12.2518189 C1.05803908,12.2518189 0.574552874,11.7849445 0.574552874,11.2122559 L0.574552874,4.21317823 C0.574552874,3.6404897 1.05803908,3.17442302 1.65213218,3.17442302 L3.72517356,3.17442302 C3.95728046,3.17442302 4.14413908,3.35454931 4.14413908,3.57829363 C4.14413908,3.80123021 3.95728046,3.98216424 3.72517356,3.98216424 L1.65213218,3.98216424 C1.52141494,3.98216424 1.41248391,4.08797834 1.41248391,4.21317823 L1.41248391,11.2122559 C1.41248391,11.3382636 1.52141494,11.4440777 1.65213218,11.4440777 L3.30620805,11.4440777 L3.30620805,10.3269716 C3.30620805,10.1032272 3.4939046,9.92310095 3.72517356,9.92310095 C3.95728046,9.92310095 4.14413908,10.1032272 4.14413908,10.3269716 L4.14413908,11.8479483 C4.14413908,12.0708849 3.95728046,12.2518189 3.72517356,12.2518189" id="Fill-2"></path>
                <path d="M15.0514874,14.6459639 L13.6370598,14.6459639 C13.0429667,14.6459639 12.5594805,14.1798972 12.5594805,13.6072087 L12.5594805,1.81903324 C12.5594805,1.24634471 13.0429667,0.779470282 13.6370598,0.779470282 L15.0514874,0.779470282 C15.6455805,0.779470282 16.1299046,1.24634471 16.1299046,1.81903324 L16.1299046,5.27858891 C16.1299046,5.50152549 15.942208,5.68245952 15.7109391,5.68245952 C15.4788322,5.68245952 15.2919736,5.50152549 15.2919736,5.27858891 L15.2919736,1.81903324 C15.2919736,1.69302561 15.1822046,1.58721151 15.0514874,1.58721151 L13.6370598,1.58721151 C13.5071805,1.58721151 13.3974115,1.69302561 13.3974115,1.81903324 L13.3974115,13.6072087 C13.3974115,13.7324086 13.5071805,13.8382227 13.6370598,13.8382227 L15.0514874,13.8382227 C15.1822046,13.8382227 15.2919736,13.7324086 15.2919736,13.6072087 L15.2919736,10.4263237 C15.2919736,10.2033872 15.4788322,10.0224531 15.7109391,10.0224531 C15.942208,10.0224531 16.1299046,10.2033872 16.1299046,10.4263237 L16.1299046,13.6072087 C16.1299046,14.1798972 15.6455805,14.6459639 15.0514874,14.6459639" id="Fill-4"></path>
                <path d="M17.7848184,12.2518189 L15.7109391,12.2518189 C15.4788322,12.2518189 15.2919736,12.0708849 15.2919736,11.8479483 C15.2919736,11.624204 15.4788322,11.4440777 15.7109391,11.4440777 L17.7848184,11.4440777 C17.9138598,11.4440777 18.0236287,11.3382636 18.0236287,11.2122559 L18.0236287,4.21317823 C18.0236287,4.08797834 17.9138598,3.98216424 17.7848184,3.98216424 L16.1299046,3.98216424 L16.1299046,5.09927036 C16.1299046,5.32220693 15.942208,5.50314097 15.7109391,5.50314097 C15.4788322,5.50314097 15.2919736,5.32220693 15.2919736,5.09927036 L15.2919736,3.57829363 C15.2919736,3.35454931 15.4788322,3.17442302 15.7109391,3.17442302 L17.7848184,3.17442302 C18.3780736,3.17442302 18.8615598,3.6404897 18.8615598,4.21317823 L18.8615598,11.2122559 C18.8615598,11.7849445 18.3780736,12.2518189 17.7848184,12.2518189" id="Fill-5"></path>
                <path d="M12.978446,9.18967192 L6.45766667,9.18967192 C6.2263977,9.18967192 6.03870115,9.00954563 6.03870115,8.78580131 L6.03870115,6.39165632 C6.03870115,6.16871974 6.2263977,5.9877857 6.45766667,5.9877857 L12.978446,5.9877857 C13.2097149,5.9877857 13.3974115,6.16871974 13.3974115,6.39165632 L13.3974115,8.78580131 C13.3974115,9.00954563 13.2097149,9.18967192 12.978446,9.18967192 L12.978446,9.18967192 Z M6.87663218,8.3819307 L12.5594805,8.3819307 L12.5594805,6.79552693 L6.87663218,6.79552693 L6.87663218,8.3819307 Z" id="Fill-7"></path>
            </g>
        </g>
    </g>
</svg>