<?xml version="1.0" encoding="UTF-8"?>
<svg width="19px" height="16px" viewBox="0 0 19 16" version="1.1" xmlns="http://www.w3.org/2000/svg" xmlns:xlink="http://www.w3.org/1999/xlink">
    <!-- Generator: Sketch 48.2 (47327) - http://www.bohemiancoding.com/sketch -->
    <title>ic-folder</title>
    <desc>Created with Sketch.</desc>
    <defs></defs>
    <g id="Measurements" stroke="none" stroke-width="1" fill="none" fill-rule="evenodd" transform="translate(-24.000000, -165.000000)">
        <g id="Sidebar" fill="#FFFFFF">
            <g id="ic-folder" transform="translate(24.500000, 164.562500)">
                <path d="M16.3632222,16.3350741 L2.11322222,16.3350741 C1.01896296,16.3350741 0.129481481,15.4448889 0.129481481,14.3513333 L0.129481481,2.48337037 C0.129481481,1.38911111 1.01896296,0.498925926 2.11322222,0.498925926 L6.47759259,0.498925926 C7.57114815,0.498925926 8.46133333,1.38911111 8.46133333,2.48337037 L8.46133333,3.25392593 L16.3632222,3.25392593 C17.4574815,3.25392593 18.3476667,4.14340741 18.3476667,5.23766667 L18.3476667,14.3513333 C18.3476667,15.4448889 17.4574815,16.3350741 16.3632222,16.3350741 L16.3632222,16.3350741 Z M2.11322222,1.20333333 C1.40740741,1.20333333 0.833185185,1.77685185 0.833185185,2.48337037 L0.833185185,14.3513333 C0.833185185,15.0571481 1.40740741,15.6313704 2.11322222,15.6313704 L16.3632222,15.6313704 C17.0697407,15.6313704 17.643963,15.0571481 17.643963,14.3513333 L17.643963,5.23766667 C17.643963,4.53114815 17.0697407,3.95692593 16.3632222,3.95692593 L8.10948148,3.95692593 C7.91525926,3.95692593 7.75762963,3.8 7.75762963,3.60507407 L7.75762963,2.48337037 C7.75762963,1.77685185 7.18340741,1.20333333 6.47759259,1.20333333 L2.11322222,1.20333333 L2.11322222,1.20333333 Z" id="Fill-1"></path>
                <path d="M8.88144444,3.95692593 L0.758592593,3.95692593 C0.56437037,3.95692593 0.406740741,3.8 0.406740741,3.60507407 C0.406740741,3.41085185 0.56437037,3.25392593 0.758592593,3.25392593 L8.88144444,3.25392593 C9.07566667,3.25392593 9.2332963,3.41085185 9.2332963,3.60507407 C9.2332963,3.8 9.07566667,3.95692593 8.88144444,3.95692593" id="Fill-2"></path>
            </g>
        </g>
    </g>
</svg>