<?xml version="1.0" encoding="UTF-8"?>
<svg width="19px" height="20px" viewBox="0 0 19 20" version="1.1" xmlns="http://www.w3.org/2000/svg" xmlns:xlink="http://www.w3.org/1999/xlink">
    <!-- Generator: Sketch 48.2 (47327) - http://www.bohemiancoding.com/sketch -->
    <title>ic-home</title>
    <desc>Created with Sketch.</desc>
    <defs></defs>
    <g id="Measurements" stroke="none" stroke-width="1" fill="none" fill-rule="evenodd" transform="translate(-24.000000, -78.000000)">
        <g id="Sidebar" fill="#FFFFFF">
            <g id="ic-home" transform="translate(24.000000, 78.000000)">
                <path d="M15.9492609,19.360527 L11.9757826,19.360527 C11.7477826,19.360527 11.5627391,19.1807426 11.5627391,18.9592226 L11.561913,14.808933 C11.561913,13.8706835 10.7886957,13.1074026 9.83952174,13.1074026 L9.30421739,13.1074026 C8.35504348,13.1074026 7.58265217,13.8706835 7.58265217,14.808933 L7.58265217,18.9592226 C7.58265217,19.1807426 7.3976087,19.360527 7.1696087,19.360527 L3.192,19.360527 C2.96482609,19.360527 2.77978261,19.1815452 2.77895652,18.9608278 L2.77234783,17.8700826 L2.77234783,11.2862835 L1.71743478,11.2967174 C1.09373913,11.2967174 0.57,10.9580165 0.33373913,10.4138478 C0.0974782609,9.86887652 0.215608696,9.26772261 0.641043478,8.84474783 L8.42691304,1.1172313 C9.01178261,0.538550435 10.1220435,0.540155652 10.706913,1.11562609 L13.148,3.5170313 C13.1496522,3.5170313 13.2537391,3.53870174 13.2545652,3.53870174 C13.2925652,3.52345217 13.3181739,3.48412435 13.3181739,3.44158609 L13.3181739,1.99046957 C13.3181739,1.31467304 13.879087,0.764886087 14.5696957,0.764886087 C15.2594783,0.764886087 15.8203913,1.31467304 15.8203913,1.99046957 L15.8203913,5.31567739 L18.6811304,8.98520435 C19.0239565,9.4242313 19.0801304,10.0045174 18.8281739,10.4981217 C18.5745652,10.9917261 18.0656957,11.2991252 17.499,11.2991252 L16.3623043,11.2870861 L16.3623043,18.9592226 C16.3623043,19.1807426 16.1772609,19.360527 15.9492609,19.360527 L15.9492609,19.360527 Z M12.388,18.5579183 L15.5362174,18.5579183 L15.5362174,10.8817687 C15.5362174,10.7742191 15.58,10.6714852 15.6584783,10.59604 C15.7369565,10.5205948 15.8377391,10.4884904 15.9533913,10.4804643 L17.489913,10.4965165 C17.7542609,10.4965165 17.974,10.3632835 18.088,10.1409609 C18.202,9.91863826 18.1772174,9.66742174 18.0227391,9.46917739 L15.0785652,5.69290348 C15.0240435,5.62307652 14.9943043,5.538 14.9943043,5.45051565 L14.9943043,1.99046957 C14.9943043,1.75691043 14.8043043,1.56749478 14.5696957,1.56749478 C14.335087,1.56749478 14.1442609,1.75691043 14.1442609,1.99046957 L14.1442609,3.44158609 C14.1442609,3.80998348 13.9203913,4.13825043 13.5734348,4.27870696 C13.233913,4.41675565 12.8241739,4.33890261 12.5614783,4.08206783 L10.117913,1.67986 C9.84365217,1.40777565 9.291,1.40857826 9.01673913,1.67905739 L1.23169565,9.4057713 C1.04004348,9.59598957 0.988826087,9.85683739 1.0953913,10.1024357 C1.20113043,10.3480339 1.42830435,10.4941087 1.70091304,10.4941087 L3.18126087,10.4804643 C3.27873913,10.4700304 3.39769565,10.5205948 3.47534783,10.59604 C3.55382609,10.6714852 3.59843478,10.7742191 3.59843478,10.8817687 L3.60256522,18.5579183 L6.75656522,18.5579183 L6.75656522,14.808933 C6.75656522,13.4284461 7.89904348,12.3047939 9.30421739,12.3047939 L9.83952174,12.3047939 C11.2446957,12.3047939 12.388,13.4284461 12.388,14.808933 L12.388,18.5579183 L12.388,18.5579183 Z" id="Fill-1"></path>
                <path d="M7.84452174,9.63130435 C6.79126087,9.63130435 5.9346087,8.79819652 5.9346087,7.77487043 C5.9346087,6.75234696 6.79126087,5.91923913 7.84452174,5.91923913 C8.89778261,5.91923913 9.75526087,6.75234696 9.75526087,7.77487043 C9.75526087,8.79819652 8.89778261,9.63130435 7.84452174,9.63130435 L7.84452174,9.63130435 Z M7.84452174,6.72184783 C7.24726087,6.72184783 6.76069565,7.19458435 6.76069565,7.77487043 C6.76069565,8.35595913 7.24726087,8.82869565 7.84452174,8.82869565 C8.4426087,8.82869565 8.92917391,8.35595913 8.92917391,7.77487043 C8.92917391,7.19458435 8.4426087,6.72184783 7.84452174,6.72184783 L7.84452174,6.72184783 Z" id="Fill-2"></path>
            </g>
        </g>
    </g>
</svg>