<?xml version="1.0" encoding="UTF-8"?>
<svg width="18px" height="16px" viewBox="0 0 18 16" version="1.1" xmlns="http://www.w3.org/2000/svg" xmlns:xlink="http://www.w3.org/1999/xlink">
    <!-- Generator: Sketch 48.2 (47327) - http://www.bohemiancoding.com/sketch -->
    <title>ic-measurements</title>
    <desc>Created with Sketch.</desc>
    <defs></defs>
    <g id="Measurements" stroke="none" stroke-width="1" fill="none" fill-rule="evenodd" transform="translate(-23.000000, -527.000000)">
        <g id="Sidebar" fill="#FFFFFF">
            <g id="ic-measurements" transform="translate(23.000000, 527.000000)">
                <path d="M9.43470742,16 C9.39573698,16 9.35608285,15.9930909 9.31916348,15.9792728 C9.20635431,15.9392003 6.54952745,14.9553502 4.24958777,12.7327058 C4.11353308,12.6014336 4.10874724,12.3824164 4.23933239,12.2442353 C4.36923386,12.106745 4.58528051,12.1012177 4.72270259,12.2338717 C6.6554997,14.1013904 8.90621355,15.0721133 9.43539111,15.2849123 C10.4007641,14.9007686 17.0920571,12.0169272 17.3019505,5.8174281 L17.3163081,5.50582952 C17.2752865,2.90595043 15.3315504,0.69090595 13.0726322,0.69090595 C11.8153227,0.69090595 10.6147597,1.38319371 9.77928816,2.59158822 C9.71570481,2.68416962 9.61041625,2.73875119 9.49897446,2.73875119 C9.38753268,2.73875119 9.28292781,2.68416962 9.21934446,2.59158822 C8.38318922,1.38319371 7.18330987,0.69090595 5.9260004,0.69090595 C3.66708224,0.69090595 1.72471345,2.87002332 1.68369194,5.44917523 L1.69463101,5.80775542 C1.70010054,5.99844546 1.55173939,6.15735383 1.36304042,6.16357198 C1.20032174,6.17393557 1.0170923,6.01917264 1.01093907,5.82779169 L1,5.45401157 C1.04785844,2.43958891 3.25755077,0 5.9260004,0 C7.27150613,0 8.55274482,0.658433371 9.49897446,1.82191899 C10.4458878,0.658433371 11.7264428,0 13.0726322,0 C15.6966419,0 17.9528253,2.52664306 18,5.51688401 L17.9849588,5.84575525 C17.7442992,12.9627774 9.63092701,15.9509457 9.54888397,15.9799637 C9.51196461,15.9930909 9.47367786,16 9.43470742,16" id="Fill-1"></path>
                <path d="M9.80824024,12 C9.66984759,12 9.54570123,11.9141457 9.49414319,11.7822233 L6.96101488,5.34175566 L5.60625933,9.36713517 C5.55877165,9.50743364 5.42987653,9.60166395 5.28605671,9.60166395 L0.339197684,9.60166395 C0.151282167,9.60166395 0,9.44600943 0,9.25266278 C0,9.06001414 0.151282167,8.90366161 0.339197684,8.90366161 L5.04454796,8.90366161 L6.61571164,4.23472394 C6.66184252,4.09721748 6.78598887,4.00368517 6.92777351,4.00019516 C7.06480937,3.99530914 7.19709647,4.08255943 7.2506897,4.21797189 L9.78653159,10.6654195 L11.4689521,5.76055706 C11.515083,5.62723862 11.6338022,5.53580031 11.770838,5.52812228 C11.9133011,5.52602828 12.0360906,5.59862052 12.095111,5.72495895 L12.827778,7.29406821 L14.6608023,7.29406821 C14.8487178,7.29406821 15,7.44972273 15,7.64306938 C15,7.83571803 14.8487178,7.99207055 14.6608023,7.99207055 L12.6147619,7.99207055 C12.4838316,7.99207055 12.3657908,7.91459229 12.3088056,7.79453589 L11.8373208,6.7845265 L10.1284429,11.7675652 C10.0809552,11.9036757 9.95680883,11.99651 9.81570259,12 L9.80824024,12 Z" id="Fill-3"></path>
            </g>
        </g>
    </g>
</svg>