<?xml version="1.0" encoding="UTF-8"?>
<svg width="18px" height="18px" viewBox="0 0 18 18" version="1.1" xmlns="http://www.w3.org/2000/svg" xmlns:xlink="http://www.w3.org/1999/xlink">
    <!-- Generator: Sketch 48.2 (47327) - http://www.bohemiancoding.com/sketch -->
    <title>ic-properties</title>
    <desc>Created with Sketch.</desc>
    <defs></defs>
    <g id="Measurements" stroke="none" stroke-width="1" fill="none" fill-rule="evenodd" transform="translate(-25.000000, -706.000000)">
        <g id="Sidebar" fill="#F8F8F8">
            <g id="ic-properties" transform="translate(25.000000, 706.000000)">
                <path d="M8.98324288,6.11480865 C7.39309908,6.11480865 6.09816583,7.4090801 6.09816583,9 C6.09816583,10.5902068 7.39309908,11.8851913 8.98324288,11.8851913 C10.5733867,11.8851913 11.8676069,10.5902068 11.8676069,9 C11.8676069,7.4090801 10.5733867,6.11480865 8.98324288,6.11480865 M8.98324288,12.5982886 C6.99948501,12.5982886 5.38509686,10.9838365 5.38509686,9 C5.38509686,7.01616354 6.99948501,5.40171143 8.98324288,5.40171143 C10.9670008,5.40171143 12.5806758,7.01616354 12.5806758,9 C12.5806758,10.9838365 10.9670008,12.5982886 8.98324288,12.5982886 M6.32706097,14.5543142 C6.41762073,14.5543142 6.49391911,14.5685762 6.56023452,14.596387 C6.78271204,14.6898027 7.27045121,15.1775612 7.45157073,15.6018541 L7.98423325,16.848348 C8.08263677,17.0779653 8.39995246,17.2869028 8.6495266,17.2869028 L9.38398764,17.2869028 C9.63356178,17.2869028 9.94659906,17.0779653 10.0421503,16.848348 L10.5641168,15.5947231 C10.6425544,15.4071785 10.9220774,14.7860708 11.2429584,14.6619919 C11.2778988,14.6491562 11.3777285,14.611362 11.6615299,14.611362 C11.8219704,14.611362 12.231272,14.6263371 12.5635622,14.7589731 L13.8306857,15.2666984 C14.050311,15.3544093 14.443212,15.2745424 14.6122093,15.1062515 L15.1313235,14.5871167 C15.3074516,14.4109817 15.3816107,14.0415973 15.2860595,13.8112669 L14.7662322,12.5505111 C14.6892208,12.3651058 14.4474904,11.7318754 14.577982,11.4223913 C14.6685418,11.2098883 15.1512895,10.738531 15.5769916,10.5574043 L16.8476805,10.0154504 C17.0780018,9.91704302 17.286931,9.60042786 17.286931,9.35013073 L17.286931,8.6156406 C17.286931,8.36676967 17.0780018,8.05300689 16.8476805,7.95745187 L15.5819831,7.43047302 C15.3402527,7.32921322 14.7676584,7.06180176 14.6528543,6.75089137 C14.5722775,6.53482291 14.5858258,5.86237224 14.7548231,5.44093178 L15.2660936,4.16876634 C15.3587925,3.93629665 15.2824942,3.564773 15.1063661,3.38792489 L14.5865388,2.86807701 C14.4182546,2.69978607 14.0289189,2.62419777 13.8114329,2.71333492 L12.5578576,3.22890421 C12.2013231,3.37508914 11.6793567,3.52198716 11.4205126,3.4100309 C11.2058789,3.31518897 10.731688,2.82885667 10.5512815,2.40599002 L10.0157667,1.15236511 C9.91736323,0.922747801 9.60076061,0.713097219 9.3504734,0.713097219 L8.61601236,0.713097219 C8.36715129,0.713097219 8.05268787,0.922034704 7.95713663,1.15165201 L7.43873549,2.39315427 C7.3602979,2.58141193 7.07863566,3.20323271 6.74848473,3.32659853 C6.65578576,3.36082719 6.51031969,3.37722843 6.31422573,3.37722843 C6.15235907,3.37722843 5.74020521,3.36296648 5.41361962,3.2317566 L4.1686012,2.73187545 C3.94754982,2.64273829 3.55607495,2.72260518 3.38779067,2.89160922 L2.86867646,3.410744 C2.69254843,3.58687901 2.61910233,3.95697647 2.71322743,4.18659377 L3.21808026,5.41312099 C3.29437864,5.60066556 3.53468288,6.23746137 3.3942083,6.56120751 C3.29580478,6.78583314 2.80378719,7.27715712 2.38236343,7.45828381 L1.15231945,7.98383646 C0.922711247,8.08224388 0.71306897,8.39957214 0.71306897,8.64986927 L0.71306897,9.3843594 C0.71306897,9.63323033 0.922711247,9.94699311 1.15231945,10.0432612 L2.37808501,10.5531257 C2.56633522,10.6315664 3.1895575,10.9139529 3.31434457,11.2483955 C3.40133899,11.4780128 3.39777364,12.1718564 3.22877629,12.5925838 L2.73176722,13.8312337 C2.63906826,14.0629903 2.71536664,14.435227 2.89220774,14.6120751 L3.41132195,15.131923 C3.57818009,15.2995008 3.96751575,15.3750891 4.18642792,15.2866651 L5.41932417,14.7789399 C5.75161431,14.6427383 6.10743572,14.5543142 6.32706097,14.5543142 M9.38398764,18 L8.6495266,18 C8.11757715,18 7.53785208,17.6170668 7.3282098,17.1278821 L6.79626035,15.8813882 C6.69785683,15.652484 6.42118607,15.3672451 6.29853821,15.2695507 C6.18230797,15.2795341 5.94842134,15.3330164 5.69100345,15.4385548 L4.45882027,15.9455669 C3.97179416,16.1473734 3.27726498,16.004754 2.90718219,15.6360827 L2.38735491,15.1162348 C2.01156756,14.7404326 1.87251911,14.0594248 2.07003922,13.5659615 L2.56704829,12.3273116 C2.67115636,12.066318 2.66687795,11.5885429 2.64120746,11.4815783 C2.6219546,11.4915617 2.41659074,11.3418113 2.10355346,11.2106014 L0.877787902,10.70145 C0.385770313,10.4953649 0,9.91704302 0,9.3843594 L0,8.64986927 C0,8.11861184 0.382918037,7.5374376 0.87208335,7.32778702 L2.10141425,6.80223437 C2.33458781,6.70240076 2.62765915,6.41573568 2.7253496,6.29236986 C2.71893198,6.19324935 2.67044329,5.95792726 2.55849146,5.68409793 L2.05363863,4.45828381 C1.85112705,3.96410744 1.98732322,3.2830996 2.3645367,2.90658426 L2.88365091,2.38744949 C3.25373371,2.01806513 3.94612368,1.87401949 4.43457592,2.07012123 L5.67959434,2.57000238 C5.82363427,2.62776325 6.06679079,2.66413121 6.31422573,2.66413121 C6.38695876,2.66413121 6.44043893,2.66056572 6.47537931,2.65700024 C6.54098166,2.58141193 6.66933407,2.3853102 6.78057283,2.11861184 L7.29897397,0.877109579 C7.50433784,0.385072498 8.08263677,0 8.61601236,0 L9.3504734,0 C9.88242285,0 10.462861,0.382933207 10.6717902,0.872117899 L11.207305,2.12574281 C11.3078477,2.36177799 11.5716832,2.63917281 11.6900527,2.73829332 C11.8055699,2.72688377 12.0330389,2.67411457 12.2861783,2.56928928 L13.5397536,2.05443309 C14.0260666,1.85262657 14.7205958,1.99524602 15.0906786,2.36391728 L15.6105059,2.88376515 C15.9862932,3.25956739 16.1260547,3.94057523 15.9278216,4.4347516 L15.4165511,5.70691704 C15.321713,5.94295222 15.3095908,6.32160685 15.321713,6.47492275 C15.4001505,6.5391015 15.5948184,6.66318041 15.8565147,6.77157119 L17.1222121,7.29855004 C17.6142297,7.50392203 18,8.08295698 18,8.6156406 L18,9.35013073 C18,9.88210126 17.6163689,10.4625624 17.1272036,10.6714999 L15.8565147,11.2127407 C15.6233411,11.3125743 15.3516618,11.5685762 15.2532583,11.684811 C15.2646674,11.787497 15.3160084,12.0142619 15.425821,12.278821 L15.9456483,13.5395769 C16.148873,14.0330402 16.0126768,14.714048 15.6354633,15.0912764 L15.1163491,15.6104112 C14.7476924,15.9790825 14.0553025,16.1252674 13.5661371,15.9284526 L12.2975874,15.4207274 C12.1499822,15.3615403 11.9061126,15.3244592 11.6615299,15.3244592 C11.6009191,15.3244592 11.5545696,15.3265985 11.5231945,15.3294509 C11.4583053,15.4078916 11.3328051,15.6047064 11.2222794,15.8692655 L10.700313,17.1228904 C10.4956622,17.6142144 9.91736323,18 9.38398764,18" id="Fill-1"></path>
            </g>
        </g>
    </g>
</svg>