<?xml version="1.0" encoding="UTF-8"?>
<svg width="18px" height="21px" viewBox="0 0 18 21" version="1.1" xmlns="http://www.w3.org/2000/svg" xmlns:xlink="http://www.w3.org/1999/xlink">
    <!-- Generator: Sketch 48.2 (47327) - http://www.bohemiancoding.com/sketch -->
    <title>ic-program</title>
    <desc>Created with Sketch.</desc>
    <defs></defs>
    <g id="Measurements" stroke="none" stroke-width="1" fill="none" fill-rule="evenodd" transform="translate(-25.000000, -392.000000)">
        <g id="Sidebar" fill="#FFFFFF">
            <g id="ic-program" transform="translate(25.000000, 392.420000)">
                <path d="M16.28496,19.98 L1.4004,19.98 C0.75096,19.98 0.2232,19.45224 0.2232,18.8028 L0.2232,3.91824 C0.2232,3.2688 0.75096,2.74104 1.4004,2.74104 L3.26448,2.74104 C3.4632,2.74104 3.62448,2.9016 3.62448,3.10104 C3.62448,3.29976 3.4632,3.46104 3.26448,3.46104 L1.4004,3.46104 C1.1484,3.46104 0.9432,3.66624 0.9432,3.91824 L0.9432,18.8028 C0.9432,19.0548 1.1484,19.26 1.4004,19.26 L16.28496,19.26 C16.53696,19.26 16.74216,19.0548 16.74216,18.8028 L16.74216,3.91824 C16.74216,3.66624 16.53696,3.46104 16.28496,3.46104 L14.17968,3.46104 C13.98024,3.46104 13.81968,3.29976 13.81968,3.10104 C13.81968,2.9016 13.98024,2.74104 14.17968,2.74104 L16.28496,2.74104 C16.93368,2.74104 17.46216,3.2688 17.46216,3.91824 L17.46216,18.8028 C17.46216,19.45224 16.93368,19.98 16.28496,19.98" id="Fill-1"></path>
                <path d="M12.42144,5.73264 L5.02272,5.73264 C4.58784,5.73264 4.23432,5.37912 4.23432,4.94496 L4.23432,2.5668 C4.23432,2.1312 4.58784,1.77768 5.02272,1.77768 L5.56416,1.77768 L5.56416,1.23624 C5.56416,0.80208 5.91768,0.44856 6.35256,0.44856 L11.0916,0.44856 C11.52648,0.44856 11.88,0.80208 11.88,1.23624 L11.88,1.77768 L12.42144,1.77768 C12.85632,1.77768 13.20984,2.1312 13.20984,2.5668 L13.20984,4.94496 C13.20984,5.37912 12.85632,5.73264 12.42144,5.73264 L12.42144,5.73264 Z M5.02272,2.49768 C4.98528,2.49768 4.95432,2.52936 4.95432,2.5668 L4.95432,4.94496 C4.95432,4.98096 4.986,5.01264 5.02272,5.01264 L12.42144,5.01264 C12.45816,5.01264 12.48984,4.98168 12.48984,4.94496 L12.48984,2.5668 C12.48984,2.52936 12.45816,2.49768 12.42144,2.49768 L11.52,2.49768 C11.32128,2.49768 11.16,2.33712 11.16,2.13768 L11.16,1.23624 C11.16,1.19952 11.12832,1.16856 11.0916,1.16856 L6.35256,1.16856 C6.31512,1.16856 6.28416,1.19952 6.28416,1.23624 L6.28416,2.13768 C6.28416,2.33712 6.12288,2.49768 5.92416,2.49768 L5.02272,2.49768 L5.02272,2.49768 Z" id="Fill-2"></path>
                <path d="M8.72208,3.9492 C8.09568,3.9492 7.58664,3.43944 7.58664,2.81376 C7.58664,2.18736 8.09568,1.6776 8.72208,1.6776 C9.34848,1.6776 9.85752,2.18736 9.85752,2.81376 C9.85752,3.43944 9.34848,3.9492 8.72208,3.9492 L8.72208,3.9492 Z M8.72208,2.3976 C8.4924,2.3976 8.30664,2.58408 8.30664,2.81376 C8.30664,3.04272 8.4924,3.2292 8.72208,3.2292 C8.95104,3.2292 9.13752,3.04272 9.13752,2.81376 C9.13752,2.58408 8.95104,2.3976 8.72208,2.3976 L8.72208,2.3976 Z" id="Fill-3"></path>
                <path d="M13.6044,9.11808 L3.90816,9.11808 C3.70944,9.11808 3.54816,8.9568 3.54816,8.75808 C3.54816,8.55864 3.70944,8.39808 3.90816,8.39808 L13.6044,8.39808 C13.80312,8.39808 13.9644,8.55864 13.9644,8.75808 C13.9644,8.9568 13.80312,9.11808 13.6044,9.11808" id="Fill-4"></path>
                <path d="M13.6044,12.55608 L3.90816,12.55608 C3.70944,12.55608 3.54816,12.3948 3.54816,12.19536 C3.54816,11.99664 3.70944,11.83608 3.90816,11.83608 L13.6044,11.83608 C13.80312,11.83608 13.9644,11.99664 13.9644,12.19536 C13.9644,12.3948 13.80312,12.55608 13.6044,12.55608" id="Fill-5"></path>
                <path d="M13.6044,15.99336 L3.90816,15.99336 C3.70944,15.99336 3.54816,15.8328 3.54816,15.63336 C3.54816,15.43464 3.70944,15.27336 3.90816,15.27336 L13.6044,15.27336 C13.80312,15.27336 13.9644,15.43464 13.9644,15.63336 C13.9644,15.8328 13.80312,15.99336 13.6044,15.99336" id="Fill-6"></path>
            </g>
        </g>
    </g>
</svg>