<?xml version="1.0" encoding="UTF-8"?>
<svg width="21px" height="21px" viewBox="0 0 21 21" version="1.1" xmlns="http://www.w3.org/2000/svg" xmlns:xlink="http://www.w3.org/1999/xlink">
    <!-- Generator: Sketch 48.2 (47327) - http://www.bohemiancoding.com/sketch -->
    <title>ic-videogallery</title>
    <desc>Created with Sketch.</desc>
    <defs></defs>
    <g id="Measurements" stroke="none" stroke-width="1" fill="none" fill-rule="evenodd" transform="translate(-24.000000, -570.000000)">
        <g id="Sidebar" fill="#FFFFFF">
            <g id="ic-videogallery" transform="translate(24.000000, 570.000000)">
                <path d="M10.39725,0.366 C4.8765,0.366 0.384,4.85775 0.384,10.37925 C0.384,12.804 1.251,15.02925 2.69025,16.764 C2.703,16.77825 2.71425,16.7925 2.72775,16.80525 C4.566,18.99525 7.32075,20.3925 10.39725,20.3925 C15.91875,20.3925 20.4105,15.90075 20.4105,10.37925 C20.4105,4.85775 15.91875,0.366 10.39725,0.366 L10.39725,0.366 Z M10.39725,1.116 C15.50475,1.116 19.6605,5.271 19.6605,10.37925 C19.6605,12.56775 18.894,14.57775 17.61975,16.16475 C17.60025,16.16175 17.58225,16.15275 17.56125,16.15275 L3.16575,16.15275 C1.8975,14.568 1.134,12.5625 1.134,10.37925 C1.134,5.271 5.28975,1.116 10.39725,1.116 L10.39725,1.116 Z M10.39725,19.6425 C7.83225,19.6425 5.508,18.59325 3.82875,16.90275 L16.96575,16.90275 C15.2865,18.59325 12.963,19.6425 10.39725,19.6425 L10.39725,19.6425 Z" id="Fill-1"></path>
                <path d="M8.90025,12.93375 C9.219,12.93375 9.5535,12.834 9.894,12.6375 L13.527,10.53975 C14.13075,10.19175 14.46375,9.7035 14.46375,9.16725 C14.46375,8.6295 14.13075,8.142 13.527,7.794 L9.894,5.69625 C9.5535,5.499 9.219,5.39925 8.90025,5.39925 C8.0715,5.39925 7.51575,6.0705 7.51575,7.0695 L7.51575,11.26425 C7.51575,12.26325 8.0715,12.93375 8.90025,12.93375 L8.90025,12.93375 Z M8.265,7.0695 C8.265,6.79275 8.32725,6.14925 8.90025,6.14925 C9.08325,6.14925 9.29775,6.2175 9.519,6.345 L13.152,8.44275 C13.509,8.649 13.71375,8.913 13.71375,9.16725 C13.71375,9.42 13.509,9.684 13.152,9.89025 L9.519,11.988 C9.29775,12.1155 9.08325,12.18375 8.90025,12.18375 C8.32725,12.18375 8.265,11.541 8.265,11.26425 L8.265,7.0695 L8.265,7.0695 Z" id="Fill-2"></path>
            </g>
        </g>
    </g>
</svg>