<?xml version="1.0" encoding="UTF-8"?>
<svg width="19px" height="22px" viewBox="0 0 19 22" version="1.1" xmlns="http://www.w3.org/2000/svg" xmlns:xlink="http://www.w3.org/1999/xlink">
    <!-- Generator: Sketch 48.2 (47327) - http://www.bohemiancoding.com/sketch -->
    <title>ic-workouts</title>
    <desc>Created with Sketch.</desc>
    <defs></defs>
    <g id="Measurements" stroke="none" stroke-width="1" fill="none" fill-rule="evenodd" transform="translate(-25.000000, -346.000000)">
        <g id="Sidebar" fill="#FFFFFF">
            <g id="ic-workouts" transform="translate(25.000000, 346.000000)">
                <path d="M8.56690266,12.6620674 C8.26681249,12.0954685 8.48330612,11.3931146 9.04919044,11.0930245 C9.61578926,10.7929343 10.3188577,11.0087134 10.6189478,11.5760267 C10.919038,12.1426256 10.7025444,12.8449795 10.1359456,13.1450696 C9.56934673,13.4444453 8.86699283,13.2286662 8.56690266,12.6620674" id="Fill-1"></path>
                <polyline id="Fill-2" points="12.5259494 17.7750323 12.623836 17.7228737 10.5174888 12.3534032 9.26782756 13.0150306 12.5259494 17.7750323"></polyline>
                <path d="M9.60435725,21.4247003 C4.49210686,21.4247003 0.333,17.2655935 0.333,12.1540576 C0.333,7.04180718 4.49210686,2.88341482 9.60435725,2.88341482 C14.7158931,2.88341482 18.875,7.04180718 18.875,12.1540576 C18.875,17.2655935 14.7158931,21.4247003 9.60435725,21.4247003 L9.60435725,21.4247003 Z M9.60435725,3.59791522 C4.88579658,3.59791522 1.0475004,7.4354969 1.0475004,12.1540576 C1.0475004,16.8719037 4.88579658,20.7101999 9.60435725,20.7101999 C14.3222034,20.7101999 18.1604996,16.8719037 18.1604996,12.1540576 C18.1604996,7.4354969 14.3222034,3.59791522 9.60435725,3.59791522 L9.60435725,3.59791522 Z" id="Fill-3"></path>
                <path d="M9.60435725,3.1956515 C9.40644064,3.1956515 9.24710705,3.03560341 9.24710705,2.83840129 L9.24710705,1.0878753 C9.24710705,0.890673192 9.40644064,0.730625101 9.60435725,0.730625101 C9.80155936,0.730625101 9.96160745,0.890673192 9.96160745,1.0878753 L9.96160745,2.83840129 C9.96160745,3.03560341 9.80155936,3.1956515 9.60435725,3.1956515" id="Fill-5"></path>
                <path d="M11.6285369,1.62375061 L7.5794631,1.62375061 C7.28365994,1.62375061 7.0435878,1.38367847 7.0435878,1.0878753 C7.0435878,0.792072136 7.28365994,0.552 7.5794631,0.552 L11.6285369,0.552 C11.9243401,0.552 12.1644122,0.792072136 12.1644122,1.0878753 C12.1644122,1.38367847 11.9243401,1.62375061 11.6285369,1.62375061" id="Fill-6"></path>
                <path d="M5.33664633,4.49318423 C5.17874174,4.49318423 5.02369516,4.41816169 4.9258086,4.27883411 L4.4020798,3.52575068 C4.24488972,3.29925406 4.30062075,2.98773188 4.52711738,2.82982729 C4.7543285,2.6726372 5.06513618,2.72765373 5.22375527,2.95486486 L5.74748407,3.70723379 C5.90467416,3.93373042 5.84894312,4.24525259 5.6224465,4.40315718 C5.53527745,4.46388972 5.43596189,4.49318423 5.33664633,4.49318423" id="Fill-7"></path>
                <path d="M13.8706392,4.49318423 C13.7720381,4.49318423 13.6727226,4.46388972 13.5855535,4.40315718 C13.3583424,4.24525259 13.3026113,3.93373042 13.4605159,3.70723379 L13.9842447,2.95486486 C14.1428638,2.72765373 14.4536715,2.6726372 14.6808826,2.82982729 C14.9073793,2.98773188 14.9631103,3.29925406 14.8052057,3.52575068 L14.2821914,4.27883411 C14.1843048,4.41816169 14.0292583,4.49318423 13.8706392,4.49318423" id="Fill-8"></path>
            </g>
        </g>
    </g>
</svg>