<?xml version="1.0" encoding="UTF-8"?>
<svg width="18px" height="20px" viewBox="0 0 18 20" version="1.1" xmlns="http://www.w3.org/2000/svg" xmlns:xlink="http://www.w3.org/1999/xlink">
    <!-- Generator: Sketch 48.2 (47327) - http://www.bohemiancoding.com/sketch -->
    <title>ic_calendar</title>
    <desc>Created with Sketch.</desc>
    <defs></defs>
    <g id="Measurements" stroke="none" stroke-width="1" fill="none" fill-rule="evenodd" transform="translate(-26.000000, -616.000000)">
        <g id="Sidebar" fill="#FFFFFF">
            <g id="ic_calendar" transform="translate(26.000000, 616.000000)">
                <path d="M8.98966991,9.41724554 C9.01156318,9.3851354 9.02178005,9.34134886 9.02178005,9.29756231 C9.02178005,9.14503917 8.90209682,9.0238964 8.74957368,9.0238964 L5.17878081,9.0238964 C5.02625768,9.0238964 4.90584467,9.14503917 4.90584467,9.29756231 C4.90584467,9.45081522 5.02625768,9.57049845 5.17878081,9.57049845 L8.10518167,9.57049845 L6.20557533,11.5241082 C6.09610896,11.6343043 6.09610896,11.8087208 6.20557533,11.9174573 L6.21652196,11.9174573 C6.27052537,11.9831372 6.34715183,12.0276535 6.43472492,12.0276535 C6.95870393,12.0276535 7.48268294,12.2232334 7.87603208,12.6282589 C8.27959808,13.0201485 8.47590777,13.5448573 8.47590777,14.0688363 C8.47590777,14.5928153 8.27959808,15.1167943 7.87603208,15.5210901 C7.4717363,15.9137095 6.94775729,16.1100192 6.42377829,16.1100192 C5.89979928,16.1100192 5.38603713,15.9137095 4.98247113,15.5210901 C4.87300476,15.4116238 4.69858835,15.4116238 4.60006862,15.5210901 C4.49133203,15.6305565 4.49133203,15.8049729 4.60006862,15.9027629 C5.10288413,16.4157952 5.76843964,16.6675679 6.42377829,16.6675679 C7.09006357,16.6675679 7.75561908,16.4048486 8.25770481,15.9027629 C8.77073718,15.4006771 9.02178005,14.7351216 9.02178005,14.0688363 C9.02178005,13.402551 8.77073718,12.7369955 8.26865145,12.2349098 C7.89792535,11.8634539 7.43889639,11.6343043 6.95870393,11.5357846 L8.93493673,9.50481863 C8.95683,9.48292536 8.97872327,9.45081522 8.98966991,9.41724554" id="Fill-1"></path>
                <path d="M12.3532065,9.08986813 L10.8790594,9.985303 C10.7476998,10.0509828 10.704643,10.203506 10.7805397,10.3458122 C10.8243262,10.4217089 10.9118993,10.4764421 11.010419,10.4764421 C11.0542056,10.4764421 11.108209,10.4545488 11.1410489,10.4333853 L12.2218468,9.79921018 L12.2218468,16.4051405 C12.2218468,16.5474468 12.3422598,16.66713 12.4838363,16.66713 C12.6370892,16.66713 12.7458258,16.5474468 12.7458258,16.4051405 L12.7458258,9.38469754 C12.7575022,9.31901772 12.7458258,9.25406767 12.7137157,9.18838785 C12.6480359,9.06797485 12.4728897,9.02418831 12.3532065,9.08986813" id="Fill-3"></path>
                <path d="M16.6629703,18.5793615 L0.980088866,18.5793615 C0.842161245,18.5793615 0.729775775,18.4677058 0.729775775,18.3290484 L0.729775775,7.57215345 L16.9132834,7.57215345 L16.9132834,18.3290484 C16.9132834,18.4677058 16.8008979,18.5793615 16.6629703,18.5793615 M0.980088866,2.65200517 L4.45892999,2.65200517 L4.45892999,3.95319538 C4.45892999,4.15461349 4.62166999,4.31808326 4.82381788,4.31808326 C5.02523599,4.31808326 5.18870576,4.15461349 5.18870576,3.95319538 L5.18870576,2.65200517 L12.4543534,2.65200517 L12.4543534,3.95319538 C12.4543534,4.15461349 12.6178232,4.31808326 12.8192413,4.31808326 C13.0206594,4.31808326 13.1841292,4.15461349 13.1841292,3.95319538 L13.1841292,2.65200517 L16.6629703,2.65200517 C16.8008979,2.65200517 16.9132834,2.76366086 16.9132834,2.90231826 L16.9132834,6.84237767 L0.729775775,6.84237767 L0.729775775,2.90231826 C0.729775775,2.76366086 0.842161245,2.65200517 0.980088866,2.65200517 M16.6629703,1.92222939 L13.1841292,1.92222939 L13.1841292,0.364887888 C13.1841292,0.163469774 13.0206594,0 12.8192413,0 C12.6178232,0 12.4543534,0.163469774 12.4543534,0.364887888 L12.4543534,1.92222939 L5.18870576,1.92222939 L5.18870576,0.364887888 C5.18870576,0.163469774 5.02523599,0 4.82381788,0 C4.62166999,0 4.45892999,0.163469774 4.45892999,0.364887888 L4.45892999,1.92222939 L0.980088866,1.92222939 C0.440054793,1.92222939 1.0658141e-14,2.36155441 1.0658141e-14,2.90231826 L1.0658141e-14,18.3290484 C1.0658141e-14,18.8690824 0.440054793,19.3091372 0.980088866,19.3091372 L16.6629703,19.3091372 C17.2030044,19.3091372 17.6430591,18.8690824 17.6430591,18.3290484 L17.6430591,2.90231826 C17.6430591,2.36155441 17.2030044,1.92222939 16.6629703,1.92222939" id="Fill-5"></path>
            </g>
        </g>
    </g>
</svg>