<?xml version="1.0" encoding="UTF-8"?>
<svg width="17px" height="19px" viewBox="0 0 17 19" version="1.1" xmlns="http://www.w3.org/2000/svg" xmlns:xlink="http://www.w3.org/1999/xlink">
    <!-- Generator: Sketch 48.2 (47327) - http://www.bohemiancoding.com/sketch -->
    <title>ic_documents</title>
    <desc>Created with Sketch.</desc>
    <defs></defs>
    <g id="Measurements" stroke="none" stroke-width="1" fill="none" fill-rule="evenodd" transform="translate(-26.000000, -661.000000)">
        <g id="Sidebar" fill="#FFFFFF">
            <g id="ic_documents" transform="translate(26.000000, 661.000000)">
                <path d="M16.1542185,16.5813613 C16.1542185,17.2408452 15.6032926,17.7777484 14.9251815,17.7777484 L4.9379963,17.7777484 C4.26051481,17.7777484 3.70895926,17.2408452 3.70895926,16.5813613 L3.70895926,15.7104258 L11.845663,15.7104258 C12.8707,15.7104258 13.7043296,14.8989419 13.7043296,13.9011355 L13.7043296,3.29300645 L14.9251815,3.29300645 C15.6032926,3.29300645 16.1542185,3.82990968 16.1542185,4.48939355 L16.1542185,16.5813613 Z M0.629440741,13.9011355 L0.629440741,1.80916774 C0.629440741,1.14968387 1.1809963,0.612780645 1.85784815,0.612780645 L11.845663,0.612780645 C12.5231444,0.612780645 13.0747,1.14968387 13.0747,1.80916774 L13.0747,13.9011355 C13.0747,14.5606194 12.5231444,15.0975226 11.845663,15.0975226 L1.85784815,15.0975226 C1.1809963,15.0975226 0.629440741,14.5606194 0.629440741,13.9011355 L0.629440741,13.9011355 Z M14.9251815,2.68010323 L13.7043296,2.68010323 L13.7043296,1.80916774 C13.7043296,0.811974194 12.8707,-0.000122580645 11.845663,-0.000122580645 L1.85784815,-0.000122580645 C0.833440741,-0.000122580645 -0.000188888889,0.811974194 -0.000188888889,1.80916774 L-0.000188888889,13.9011355 C-0.000188888889,14.8989419 0.833440741,15.7104258 1.85784815,15.7104258 L3.07932963,15.7104258 L3.07932963,16.5813613 C3.07932963,17.5791677 3.91358889,18.3906516 4.9379963,18.3906516 L14.9251815,18.3906516 C15.9502185,18.3906516 16.7838481,17.5791677 16.7838481,16.5813613 L16.7838481,4.48939355 C16.7838481,3.4922 15.9502185,2.68010323 14.9251815,2.68010323 L14.9251815,2.68010323 Z" id="Fill-1"></path>
                <path d="M3.04451111,10.1085779 L8.02362222,10.1085779 C8.1974,10.1085779 8.33843704,9.95657788 8.33843704,9.76929217 C8.33843704,9.58200645 8.1974,9.43000645 8.02362222,9.43000645 L3.04451111,9.43000645 C2.87073333,9.43000645 2.7296963,9.58200645 2.7296963,9.76929217 C2.7296963,9.95657788 2.87073333,10.1085779 3.04451111,10.1085779" id="Fill-4"></path>
                <path d="M11.3093444,11.6163986 C11.3093444,11.4291129 11.1683074,11.2771129 10.9945296,11.2771129 L3.04482593,11.2771129 C2.87041852,11.2771129 2.73001111,11.4291129 2.73001111,11.6163986 C2.73001111,11.8036843 2.87041852,11.9556843 3.04482593,11.9556843 L10.9945296,11.9556843 C11.1683074,11.9556843 11.3093444,11.8036843 11.3093444,11.6163986" id="Fill-6"></path>
                <path d="M4.69546296,3.67925806 C5.43212963,3.67925806 6.03153704,4.26274194 6.03153704,4.97983871 C6.03153704,5.69693548 5.43212963,6.28041935 4.69546296,6.28041935 C3.9587963,6.28041935 3.35938889,5.69693548 3.35938889,4.97983871 C3.35938889,4.26274194 3.9587963,3.67925806 4.69546296,3.67925806 M4.69546296,6.89332258 C5.77968519,6.89332258 6.66116667,6.03525806 6.66116667,4.97983871 C6.66116667,3.92441935 5.77968519,3.06635484 4.69546296,3.06635484 C3.61124074,3.06635484 2.72975926,3.92441935 2.72975926,4.97983871 C2.72975926,6.03525806 3.61124074,6.89332258 4.69546296,6.89332258" id="Fill-8"></path>
            </g>
        </g>
    </g>
</svg>