<?xml version="1.0" encoding="UTF-8"?>
<svg width="7px" height="14px" viewBox="0 0 7 14" version="1.1" xmlns="http://www.w3.org/2000/svg" xmlns:xlink="http://www.w3.org/1999/xlink">
    <!-- Generator: Sketch 48.2 (47327) - http://www.bohemiancoding.com/sketch -->
    <title>Combined Shape</title>
    <desc>Created with Sketch.</desc>
    <defs></defs>
    <g id="Measurements" stroke="none" stroke-width="1" fill="none" fill-rule="evenodd" transform="translate(-56.000000, -198.000000)">
        <g id="Sidebar" fill="#636363">
            <path d="M56,198 L58,198 L58,200 L56,200 L56,198 Z M56,202 L58,202 L58,204 L56,204 L56,202 Z M61,198 L63,198 L63,200 L61,200 L61,198 Z M61,202 L63,202 L63,204 L61,204 L61,202 Z M56,206 L58,206 L58,208 L56,208 L56,206 Z M61,206 L63,206 L63,208 L61,208 L61,206 Z M56,210 L58,210 L58,212 L56,212 L56,210 Z M61,210 L63,210 L63,212 L61,212 L61,210 Z" id="Combined-Shape"></path>
        </g>
    </g>
</svg>